<svg width="160" height="66" viewBox="0 0 160 66" fill="none" xmlns="http://www.w3.org/2000/svg">
<path fill-rule="evenodd" clip-rule="evenodd" d="M48.031 24.7831C51.682 28.7571 59.647 25.1581 57.062 19.8611C55.336 16.3051 52.75 17.1301 50.904 18.0411C47.208 19.8201 46.509 23.0881 48.031 24.7831ZM42.105 22.0021C44.481 26.8681 37.168 30.1731 33.813 26.5231C32.415 24.9681 33.058 21.9631 36.449 20.3301C38.146 19.4941 40.522 18.7341 42.105 22.0021ZM157.936 50.3741C156.715 50.5333 155.442 50.6426 154.221 50.7475L154.179 50.7511V50.8071C151.764 68.1711 127.991 71.0381 127.4 57.4061C127.131 51.2391 138.993 49.4561 150.798 48.3181C151.007 42.9113 147.233 44.1235 142.648 45.596C137.829 47.1438 132.115 48.9791 129.19 43.7171C124.171 34.6921 143.822 25.7791 145.918 27.6151C152.271 33.1767 149.4 34.2064 144.727 35.8825L144.539 35.9501C135.049 39.3601 138.748 40.0571 140.028 39.6761C147.597 37.4231 154.394 38.6361 154.34 47.9931C154.955 47.942 155.557 47.9026 156.154 47.8635L156.154 47.8635C156.807 47.8208 157.452 47.7785 158.097 47.7221C160.403 47.5071 160.564 50.1571 157.936 50.3741ZM150.422 51.1301C141.298 52.1581 133.409 53.5661 134.269 56.4851C135.985 62.0581 147.846 63.3031 150.422 51.1301ZM117.79 34.2301C116.975 39.8801 116.996 45.8811 117.678 45.9181C118.012 45.9371 119.982 45.5721 120.617 44.4111C121.226 43.2935 121.794 41.7544 122.388 40.1411L122.388 40.141L122.388 40.141L122.388 40.1409L122.388 40.1408L122.388 40.1407L122.388 40.1406C123.586 36.8908 124.895 33.3398 126.883 32.3241C129.725 30.8731 118.795 27.2791 117.79 34.2301ZM28.883 62.6661C20.964 68.0041 14.664 66.8251 16.671 51.8181C18.121 40.9141 15.723 40.2971 13.549 42.3761C10.704 45.0731 8.921 52.0991 8.865 58.7881C9.12323 60.3952 9.45828 61.989 9.869 63.5641C10.203 65.1941 4.962 66.8791 1.895 64.5751C0.837 63.7901 0 55.8651 0 45.1311C0 36.3071 1.171 30.2361 2.23 29.9561C10.259 27.7651 11.542 31.3041 9.813 37.9371C9.12537 40.5344 8.65871 43.1852 8.418 45.8611C10.091 41.1971 12.489 37.3761 15.221 35.6881C22.637 31.0241 28.826 33.2151 27.655 42.4891C25.648 59.0691 25.481 61.3161 27.265 60.0241C29.496 58.4501 30.945 61.2621 28.883 62.6661ZM41.766 65.1421C47.176 65.7611 52.807 64.0741 54.982 60.5901C56.821 57.6671 55.316 56.6551 53.197 59.0151C48.737 64.1311 44.109 61.8261 42.158 56.6551L42.66 56.4871C52.082 52.7211 57.992 42.4931 54.257 36.7041C49.126 28.7231 33.069 35.8601 31.061 47.0451C29.221 57.3861 34.016 64.2991 41.766 65.1421ZM41.377 53.1721C47.232 49.0131 49.183 39.8521 47.566 37.2671C45.838 34.5701 42.492 38.7841 41.321 49.0131C41.21 50.4741 41.21 51.8781 41.377 53.1721ZM77.125 51.0511C79.188 50.3761 81.494 48.4991 83.091 45.9921C83.538 45.2891 83.914 44.6571 84.43 43.0121C84.3675 43.2112 84.3915 43.1205 84.4509 42.8954C84.5588 42.4864 84.7839 41.6336 84.82 41.2711C84.82 41.2151 84.876 40.9321 84.932 40.8221C86.157 33.9651 81.921 30.0861 76.065 33.0091C72.776 34.6381 68.706 40.8221 66.253 47.5101C66.866 43.9121 67.925 40.4841 69.096 37.1111C71.103 31.1541 67.368 28.1191 60.956 29.8621C59.896 30.1431 57.945 37.9551 57.945 46.7791C57.945 57.5131 58.503 63.6951 59.562 64.4831C62.628 66.8431 68.092 65.1011 67.535 63.5271C67.3189 62.9292 67.1554 62.3285 66.9926 61.7304L66.977 61.6731C66.977 61.5041 66.977 61.3351 66.922 61.1671C65.861 54.1961 69.933 44.5321 73.278 41.9461C74.17 41.2151 75.396 41.7211 75.564 43.6321C72.832 44.9811 71.94 47.3421 71.94 48.3531C71.94 51.1071 74.727 51.7811 77.125 51.0511Z" fill="black"/>
<path fill-rule="evenodd" clip-rule="evenodd" d="M113.207 27.1611C112.726 29.6539 112.354 32.1666 112.092 34.6921C111.033 44.7521 111.48 53.688 112.705 57.6781C113.431 59.8151 116.162 62.6241 118.783 59.7011C121.626 56.4981 124.75 58.3521 120.957 62.1171C118.617 64.4221 114.268 65.995 109.918 65.5451C106.795 65.1521 104.9 63.1301 103.784 60.0401C103.34 60.938 102.837 61.7251 102.224 62.3421C100.105 64.5351 97.539 65.772 94.25 65.4341C87.613 64.7041 83.712 57.5111 85.551 47.2811C87.503 36.4901 96.87 32.5561 102.279 35.4241C102.391 34.0751 102.502 32.7251 102.614 31.3201C102.642 31.1796 102.655 31.0391 102.669 30.8986C102.683 30.7581 102.697 30.6176 102.724 30.4771C101.079 30.8388 99.424 31.1575 97.762 31.4331C73.787 35.4231 82.04 15.8641 87.894 10.7501C94.53 5.01705 95.254 8.89505 93.191 10.1881C89.511 12.5481 87.894 26.0931 98.432 26.0931C100.161 26.0931 101.778 25.9811 103.394 25.8121C106.685 7.49005 116.665 -1.39095 124.75 1.53205C133.726 4.79205 132.779 19.0671 113.207 27.1611ZM102.279 51.5541C102.055 48.0121 102.055 44.0221 102.112 39.9181C102.112 39.6576 102.127 39.3975 102.141 39.145C102.155 38.9068 102.168 38.6755 102.168 38.4571C98.822 36.9391 95.533 42.1101 94.695 49.2491C93.749 57.6221 97.483 62.0621 99.603 60.0401C101.22 58.4091 102.056 53.2371 102.279 51.5541ZM126.365 8.38905C124.581 5.74705 118.058 8.95105 114.267 22.7211C123.802 18.1671 127.593 10.2991 126.365 8.38905Z" fill="black"/>
</svg>
