<svg width="54" height="68" viewBox="0 0 54 68" fill="none" xmlns="http://www.w3.org/2000/svg">
<path d="M27.0665 0.0349245L26.7871 0L0 2.79396V51.8979L26.7871 67.8234L53.5742 51.8979V2.79396L27.0665 0.0349245ZM50.0818 49.9072L26.7871 63.7722L3.49245 49.9072V29.7906L26.6823 43.5858L26.7173 46.1004L10.8266 36.6358L10.7917 39.0806L26.7522 48.6848L26.7871 51.2343L10.8266 41.6999L10.7917 44.1446L26.7522 53.7489L42.8873 44.1097V41.665H42.8524V40.8268V39.814V33.7371L50.0469 29.4414V49.9072H50.0818ZM50.0469 26.822L43.6906 30.559L40.7569 32.3052L26.7173 23.9932L26.6823 26.4379L38.6615 33.5276L38.5567 33.5974L38.3122 33.7371L36.6009 34.7499L26.7173 28.8826L26.6823 31.3273L34.5054 35.9723L32.6544 37.1946L32.6195 37.2296L26.7173 33.7371L26.6823 36.1818L30.559 38.4519L26.6125 40.8268L3.5623 27.1014L26.6474 13.2015L50.0469 26.822ZM50.0818 24.4123L26.6823 10.6171L3.49245 24.3773V5.9721L26.7871 3.52738L50.0818 5.9721V24.4123Z" fill="black"/>
</svg>
